<mxfile host="app.diagrams.net" modified="2023-11-26T20:34:26.866Z" agent="Mozilla/5.0 (Windows NT 10.0; Win64; x64) AppleWebKit/537.36 (KHTML, like Gecko) Chrome/118.0.0.0 Safari/537.36 OPR/104.0.0.0" etag="nQtwehq5_StHWwqP821D" version="22.1.4" type="google">
  <diagram name="Página-1" id="mRNtJAjo07JBXhn5L7cl">
    <mxGraphModel grid="1" page="1" gridSize="10" guides="1" tooltips="1" connect="1" arrows="1" fold="1" pageScale="1" pageWidth="827" pageHeight="1169" math="0" shadow="0">
      <root>
        <mxCell id="0" />
        <mxCell id="1" parent="0" />
        <mxCell id="QiB8KhnXNdZs55iuxvAs-4" style="rounded=0;orthogonalLoop=1;jettySize=auto;html=1;entryX=0;entryY=0.5;entryDx=0;entryDy=0;endArrow=none;endFill=0;" edge="1" parent="1" target="QiB8KhnXNdZs55iuxvAs-3">
          <mxGeometry relative="1" as="geometry">
            <mxPoint x="130" y="336.9230769230769" as="sourcePoint" />
          </mxGeometry>
        </mxCell>
        <mxCell id="QiB8KhnXNdZs55iuxvAs-10" style="rounded=0;orthogonalLoop=1;jettySize=auto;html=1;entryX=0;entryY=0.5;entryDx=0;entryDy=0;endArrow=none;endFill=0;" edge="1" parent="1" target="QiB8KhnXNdZs55iuxvAs-8">
          <mxGeometry relative="1" as="geometry">
            <mxPoint x="130" y="320" as="sourcePoint" />
          </mxGeometry>
        </mxCell>
        <mxCell id="QiB8KhnXNdZs55iuxvAs-12" style="rounded=0;orthogonalLoop=1;jettySize=auto;html=1;endArrow=none;endFill=0;" edge="1" parent="1" target="QiB8KhnXNdZs55iuxvAs-11">
          <mxGeometry relative="1" as="geometry">
            <mxPoint x="119.76744186046517" y="370" as="sourcePoint" />
          </mxGeometry>
        </mxCell>
        <mxCell id="QiB8KhnXNdZs55iuxvAs-22" style="rounded=0;orthogonalLoop=1;jettySize=auto;html=1;entryX=0;entryY=0.5;entryDx=0;entryDy=0;endArrow=none;endFill=0;" edge="1" parent="1" target="QiB8KhnXNdZs55iuxvAs-19">
          <mxGeometry relative="1" as="geometry">
            <mxPoint x="130" y="344.9180327868853" as="sourcePoint" />
          </mxGeometry>
        </mxCell>
        <mxCell id="QiB8KhnXNdZs55iuxvAs-23" style="rounded=0;orthogonalLoop=1;jettySize=auto;html=1;entryX=0;entryY=0.5;entryDx=0;entryDy=0;endArrow=none;endFill=0;" edge="1" parent="1" target="QiB8KhnXNdZs55iuxvAs-20">
          <mxGeometry relative="1" as="geometry">
            <mxPoint x="130" y="350.655737704918" as="sourcePoint" />
          </mxGeometry>
        </mxCell>
        <mxCell id="QiB8KhnXNdZs55iuxvAs-24" style="rounded=0;orthogonalLoop=1;jettySize=auto;html=1;entryX=0;entryY=0.5;entryDx=0;entryDy=0;endArrow=none;endFill=0;" edge="1" parent="1" target="QiB8KhnXNdZs55iuxvAs-21">
          <mxGeometry relative="1" as="geometry">
            <mxPoint x="130" y="356.3934426229507" as="sourcePoint" />
          </mxGeometry>
        </mxCell>
        <mxCell id="QiB8KhnXNdZs55iuxvAs-35" style="rounded=0;orthogonalLoop=1;jettySize=auto;html=1;" edge="1" parent="1" source="QiB8KhnXNdZs55iuxvAs-3" target="QiB8KhnXNdZs55iuxvAs-33">
          <mxGeometry relative="1" as="geometry" />
        </mxCell>
        <mxCell id="QiB8KhnXNdZs55iuxvAs-3" value="Agendar&amp;nbsp;&lt;br&gt;Exames" style="rounded=1;whiteSpace=wrap;html=1;" vertex="1" parent="1">
          <mxGeometry x="370" y="270" width="120" height="60" as="geometry" />
        </mxCell>
        <mxCell id="QiB8KhnXNdZs55iuxvAs-5" style="rounded=0;orthogonalLoop=1;jettySize=auto;html=1;entryX=0.1;entryY=0.5;entryDx=0;entryDy=0;entryPerimeter=0;endArrow=none;endFill=0;" edge="1" parent="1" source="QiB8KhnXNdZs55iuxvAs-3">
          <mxGeometry relative="1" as="geometry">
            <mxPoint x="674" y="290" as="targetPoint" />
          </mxGeometry>
        </mxCell>
        <mxCell id="QiB8KhnXNdZs55iuxvAs-8" value="Criar Conta" style="rounded=1;whiteSpace=wrap;html=1;" vertex="1" parent="1">
          <mxGeometry x="280" y="150" width="120" height="60" as="geometry" />
        </mxCell>
        <mxCell id="QiB8KhnXNdZs55iuxvAs-17" style="rounded=0;orthogonalLoop=1;jettySize=auto;html=1;" edge="1" parent="1" source="QiB8KhnXNdZs55iuxvAs-11" target="QiB8KhnXNdZs55iuxvAs-16">
          <mxGeometry relative="1" as="geometry" />
        </mxCell>
        <mxCell id="QiB8KhnXNdZs55iuxvAs-11" value="Visualizar Resultados de Exames" style="rounded=1;whiteSpace=wrap;html=1;" vertex="1" parent="1">
          <mxGeometry x="120" y="525" width="120" height="60" as="geometry" />
        </mxCell>
        <mxCell id="QiB8KhnXNdZs55iuxvAs-37" style="rounded=0;orthogonalLoop=1;jettySize=auto;html=1;entryX=1;entryY=0.5;entryDx=0;entryDy=0;endArrow=none;endFill=0;" edge="1" parent="1" target="QiB8KhnXNdZs55iuxvAs-33">
          <mxGeometry relative="1" as="geometry">
            <mxPoint x="710" y="122" as="sourcePoint" />
          </mxGeometry>
        </mxCell>
        <mxCell id="QiB8KhnXNdZs55iuxvAs-16" value="Encaminhar Exame Para Médico" style="rounded=1;whiteSpace=wrap;html=1;" vertex="1" parent="1">
          <mxGeometry x="300" y="660" width="120" height="60" as="geometry" />
        </mxCell>
        <mxCell id="QiB8KhnXNdZs55iuxvAs-18" value="&amp;lt;&amp;lt;extend&amp;gt;&amp;gt;" style="text;html=1;strokeColor=none;fillColor=none;align=center;verticalAlign=middle;whiteSpace=wrap;rounded=0;" vertex="1" parent="1">
          <mxGeometry x="210" y="620" width="60" height="30" as="geometry" />
        </mxCell>
        <mxCell id="QiB8KhnXNdZs55iuxvAs-19" value="Reagendar&lt;br&gt;Exame" style="rounded=1;whiteSpace=wrap;html=1;" vertex="1" parent="1">
          <mxGeometry x="354" y="370" width="120" height="60" as="geometry" />
        </mxCell>
        <mxCell id="QiB8KhnXNdZs55iuxvAs-20" value="Cancelar Exame" style="rounded=1;whiteSpace=wrap;html=1;" vertex="1" parent="1">
          <mxGeometry x="354" y="440" width="120" height="60" as="geometry" />
        </mxCell>
        <mxCell id="QiB8KhnXNdZs55iuxvAs-21" value="Consultar Preparo de Exame" style="rounded=1;whiteSpace=wrap;html=1;" vertex="1" parent="1">
          <mxGeometry x="354" y="510" width="120" height="60" as="geometry" />
        </mxCell>
        <mxCell id="QiB8KhnXNdZs55iuxvAs-27" style="rounded=0;orthogonalLoop=1;jettySize=auto;html=1;entryX=1;entryY=0.5;entryDx=0;entryDy=0;" edge="1" parent="1" source="QiB8KhnXNdZs55iuxvAs-25" target="QiB8KhnXNdZs55iuxvAs-19">
          <mxGeometry relative="1" as="geometry" />
        </mxCell>
        <mxCell id="QiB8KhnXNdZs55iuxvAs-28" style="rounded=0;orthogonalLoop=1;jettySize=auto;html=1;entryX=1;entryY=0.5;entryDx=0;entryDy=0;" edge="1" parent="1" source="QiB8KhnXNdZs55iuxvAs-25" target="QiB8KhnXNdZs55iuxvAs-20">
          <mxGeometry relative="1" as="geometry" />
        </mxCell>
        <mxCell id="QiB8KhnXNdZs55iuxvAs-29" style="rounded=0;orthogonalLoop=1;jettySize=auto;html=1;entryX=1;entryY=0.5;entryDx=0;entryDy=0;" edge="1" parent="1" source="QiB8KhnXNdZs55iuxvAs-25" target="QiB8KhnXNdZs55iuxvAs-21">
          <mxGeometry relative="1" as="geometry" />
        </mxCell>
        <mxCell id="QiB8KhnXNdZs55iuxvAs-25" value="Busca Exame" style="rounded=1;whiteSpace=wrap;html=1;" vertex="1" parent="1">
          <mxGeometry x="600" y="440" width="120" height="60" as="geometry" />
        </mxCell>
        <mxCell id="QiB8KhnXNdZs55iuxvAs-30" value="&amp;lt;&amp;lt;include&amp;gt;&amp;gt;" style="text;html=1;strokeColor=none;fillColor=none;align=center;verticalAlign=middle;whiteSpace=wrap;rounded=0;" vertex="1" parent="1">
          <mxGeometry x="530" y="390" width="60" height="30" as="geometry" />
        </mxCell>
        <mxCell id="QiB8KhnXNdZs55iuxvAs-31" value="&amp;lt;&amp;lt;include&amp;gt;&amp;gt;" style="text;html=1;strokeColor=none;fillColor=none;align=center;verticalAlign=middle;whiteSpace=wrap;rounded=0;" vertex="1" parent="1">
          <mxGeometry x="500" y="440" width="60" height="30" as="geometry" />
        </mxCell>
        <mxCell id="QiB8KhnXNdZs55iuxvAs-32" value="&amp;lt;&amp;lt;include&amp;gt;&amp;gt;" style="text;html=1;strokeColor=none;fillColor=none;align=center;verticalAlign=middle;whiteSpace=wrap;rounded=0;" vertex="1" parent="1">
          <mxGeometry x="520" y="520" width="60" height="30" as="geometry" />
        </mxCell>
        <mxCell id="QiB8KhnXNdZs55iuxvAs-33" value="Checar Cobertura de&lt;br&gt;Convênio" style="rounded=1;whiteSpace=wrap;html=1;" vertex="1" parent="1">
          <mxGeometry x="510" y="140" width="120" height="60" as="geometry" />
        </mxCell>
        <mxCell id="QiB8KhnXNdZs55iuxvAs-36" value="&amp;lt;&amp;lt;extend&amp;gt;&amp;gt;" style="text;html=1;strokeColor=none;fillColor=none;align=center;verticalAlign=middle;whiteSpace=wrap;rounded=0;" vertex="1" parent="1">
          <mxGeometry x="440" y="210" width="60" height="30" as="geometry" />
        </mxCell>
        <mxCell id="22gU3AjxQtR92hvuW943-1" value="Paciente" style="shape=umlActor;verticalLabelPosition=bottom;verticalAlign=top;html=1;outlineConnect=0;" vertex="1" parent="1">
          <mxGeometry x="90" y="290" width="30" height="60" as="geometry" />
        </mxCell>
        <mxCell id="22gU3AjxQtR92hvuW943-3" value="Convênio" style="shape=umlActor;verticalLabelPosition=bottom;verticalAlign=top;outlineConnect=0;horizontal=1;html=1;" vertex="1" parent="1">
          <mxGeometry x="715" y="70" width="30" height="60" as="geometry" />
        </mxCell>
        <mxCell id="22gU3AjxQtR92hvuW943-4" value="Sistema do Hospital&lt;br&gt;" style="shape=umlActor;verticalLabelPosition=bottom;verticalAlign=top;html=1;outlineConnect=0;" vertex="1" parent="1">
          <mxGeometry x="675" y="250" width="30" height="60" as="geometry" />
        </mxCell>
      </root>
    </mxGraphModel>
  </diagram>
</mxfile>
